<svg width="63" height="67" viewBox="0 0 63 67" fill="none" xmlns="http://www.w3.org/2000/svg">
<path d="M12.6387 37.1895C16.3948 41.5946 21.7106 44.628 27.7323 45.436L15.9644 65.8199L13.3843 53.0932L1.07324 57.2223L12.6387 37.1895Z" fill="white"/>
<path d="M12.5421 36.1177C12.8898 36.0859 13.2316 36.2257 13.4581 36.4914C17.0481 40.7016 22.1266 43.5978 27.8766 44.3693C28.2318 44.417 28.5404 44.6388 28.6986 44.9604C28.8567 45.282 28.8441 45.6617 28.665 45.9721L16.8971 66.356C16.6738 66.7429 16.234 66.951 15.7931 66.8791C15.3521 66.8071 15.0019 66.4698 14.9132 66.0319L12.574 54.4975L1.41658 58.2404C0.993017 58.3824 0.525598 58.247 0.242815 57.9012C-0.0398492 57.5554 -0.0795091 57.0706 0.143742 56.6838L11.7092 36.6509L11.7815 36.5426C11.9625 36.3016 12.238 36.1456 12.5421 36.1177ZM3.42574 55.2984L13.0442 52.0727L13.155 52.0425C13.4156 51.9851 13.6899 52.0261 13.9233 52.1608C14.1901 52.3149 14.3776 52.5767 14.4388 52.8787L16.4538 62.8221L26.0278 46.2383C20.8924 45.2157 16.3232 42.6308 12.8343 39.0009L3.42574 55.2984Z" fill="black"/>
<path d="M50.3613 37.1895C46.6052 41.5946 41.2894 44.628 35.2677 45.436L47.0356 65.8199L49.6157 53.0932L61.9268 57.2223L50.3613 37.1895Z" fill="white"/>
<path d="M50.4579 36.1177C50.1102 36.0859 49.7684 36.2257 49.5419 36.4914C45.9519 40.7016 40.8734 43.5978 35.1234 44.3693C34.7682 44.417 34.4596 44.6388 34.3014 44.9604C34.1433 45.282 34.1559 45.6617 34.335 45.9721L46.1029 66.356C46.3262 66.7429 46.766 66.951 47.2069 66.8791C47.6479 66.8071 47.9981 66.4698 48.0868 66.0319L50.426 54.4975L61.5834 58.2404C62.007 58.3824 62.4744 58.247 62.7572 57.9012C63.0398 57.5554 63.0795 57.0706 62.8563 56.6838L51.2908 36.6509L51.2185 36.5426C51.0375 36.3016 50.762 36.1456 50.4579 36.1177ZM59.5743 55.2984L49.9558 52.0727L49.845 52.0425C49.5844 51.9851 49.3101 52.0261 49.0767 52.1608C48.8099 52.3149 48.6224 52.5767 48.5612 52.8787L46.5462 62.8221L36.9722 46.2383C42.1076 45.2157 46.6768 42.6308 50.1657 39.0009L59.5743 55.2984Z" fill="black"/>
<path d="M55.2379 25.1473C55.2379 38.4424 44.46 49.2203 31.1648 49.2203C17.8697 49.2203 7.0918 38.4424 7.0918 25.1473C7.0918 11.8521 17.8697 1.07422 31.1648 1.07422C44.46 1.07422 55.2379 11.8521 55.2379 25.1473Z" fill="white"/>
<path d="M54.1646 25.1477C54.1646 12.4461 43.8679 2.14938 31.1663 2.14938C18.4646 2.14938 8.16793 12.4461 8.16793 25.1477C8.16793 37.8494 18.4646 48.1461 31.1663 48.1461C43.8679 48.1461 54.1646 37.8494 54.1646 25.1477ZM56.314 25.1477C56.314 39.0364 45.055 50.2955 31.1663 50.2955C17.2776 50.2955 6.01855 39.0364 6.01855 25.1477C6.01855 11.259 17.2776 0 31.1663 0C45.055 0 56.314 11.259 56.314 25.1477Z" fill="black"/>
<path d="M46.6415 25.1455C46.6415 33.6924 39.7129 40.621 31.166 40.621C22.6191 40.621 15.6904 33.6924 15.6904 25.1455C15.6904 16.5986 22.6191 9.66992 31.166 9.66992C39.7129 9.66992 46.6415 16.5986 46.6415 25.1455Z" fill="white"/>
<path fill-rule="evenodd" clip-rule="evenodd" d="M31.6867 20.4073C29.8205 18.5835 27.0741 18.8698 25.6002 20.2694C23.9991 21.7964 23.787 24.8396 25.3882 27.8828C26.4061 29.9399 28.9616 32.0182 31.1247 33.3861C31.4746 33.6088 31.9094 33.6088 32.2593 33.3861C34.4224 32.0182 36.9779 29.9399 37.9958 27.8828C39.597 24.8396 39.3849 21.7964 37.7838 20.2694C36.3099 18.8698 33.5635 18.5835 31.6973 20.4073H31.6867ZM30.7642 22.6658C30.9551 23.0052 31.305 23.2066 31.6867 23.2066C32.0684 23.2066 32.4183 23.0052 32.6092 22.6658C33.5423 21.0117 35.3768 20.9269 36.3099 21.807C36.787 22.2629 36.9885 22.9521 36.9885 23.7368C36.9885 24.7017 36.6916 25.7939 36.1084 26.8967C36.1084 26.8967 36.1084 26.9179 36.0978 26.9179C35.3237 28.4978 33.4151 30.0566 31.6867 31.2124C29.9583 30.0566 28.0603 28.5084 27.2756 26.9179C27.2756 26.9179 27.2756 26.8967 27.265 26.8967C26.6818 25.7939 26.3849 24.6911 26.3849 23.7368C26.3849 22.9415 26.5864 22.2523 27.0635 21.807C27.9966 20.9269 29.8311 21.0117 30.7642 22.6658Z" fill="black"/>
<path d="M45.5673 25.1479C45.5673 17.1945 39.1198 10.747 31.1664 10.747C23.2131 10.747 16.7656 17.1945 16.7656 25.1479C16.7656 33.1012 23.2131 39.5487 31.1664 39.5487C39.1198 39.5487 45.5673 33.1012 45.5673 25.1479ZM47.7167 25.1479C47.7167 34.2883 40.3069 41.6981 31.1664 41.6981C22.026 41.6981 14.6162 34.2883 14.6162 25.1479C14.6162 16.0074 22.026 8.59766 31.1664 8.59766C40.3069 8.59766 47.7167 16.0074 47.7167 25.1479Z" fill="black"/>
</svg>
